<svg width="24" height="24" viewBox="0 0 24 24" fill="none" xmlns="http://www.w3.org/2000/svg">
<path d="M8 15.0557C8 13.8492 8.84866 12.8215 10.002 12.6313L10.1059 12.6142C11.0295 12.4619 11.9705 12.4619 12.8941 12.6142L12.998 12.6313C14.1513 12.8215 15 13.8492 15 15.0557C15 15.5772 14.5908 16 14.0859 16H8.91406C8.40924 16 8 15.5772 8 15.0557Z" stroke="#858BA0" stroke-width="1.2"/>
<path d="M13.5417 8.96875C13.5417 10.0561 12.6276 10.9375 11.5 10.9375C10.3724 10.9375 9.45834 10.0561 9.45834 8.96875C9.45834 7.88144 10.3724 7 11.5 7C12.6276 7 13.5417 7.88144 13.5417 8.96875Z" stroke="#858BA0" stroke-width="1.2"/>
<path d="M7.16722 19.3041C5.75126 18.4876 5.04328 18.0794 4.5106 17.5199C3.90391 16.8827 3.45891 16.1027 3.21455 15.2483C3 14.498 3 13.6654 3 12C3 10.3346 3 9.50196 3.21455 8.75174C3.45891 7.8973 3.90391 7.11731 4.5106 6.4801C5.04328 5.92061 5.75126 5.51238 7.16722 4.69591L7.33278 4.60045C8.85285 3.72395 9.61289 3.28571 10.4188 3.11398C11.132 2.96201 11.868 2.96201 12.5812 3.11398C13.3871 3.28571 14.1471 3.72395 15.6672 4.60045L15.8328 4.69591C17.2487 5.51238 17.9567 5.92061 18.4894 6.4801C19.0961 7.11731 19.5411 7.8973 19.7854 8.75174C20 9.50196 20 10.3346 20 12C20 13.6654 20 14.498 19.7855 15.2483C19.5411 16.1027 19.0961 16.8827 18.4894 17.5199C17.9567 18.0794 17.2487 18.4876 15.8328 19.3041L15.6672 19.3995C14.1471 20.276 13.3871 20.7143 12.5812 20.886C11.868 21.038 11.132 21.038 10.4188 20.886C9.6129 20.7143 8.85286 20.276 7.33278 19.3996L7.16722 19.3041Z" stroke="#858BA0" stroke-width="1.5" stroke-linejoin="round"/>
</svg>
