<svg width="20" height="20" viewBox="0 0 14 14" fill="none" xmlns="http://www.w3.org/2000/svg">
<path d="M1.16602 6.0996C1.16602 4.82496 2.19931 3.79167 3.47395 3.79167V3.79167C3.84324 3.79167 4.177 3.57159 4.32248 3.23215L4.50312 2.81064C4.77889 2.16719 5.41158 1.75 6.11163 1.75H6.99935H7.88707C8.58712 1.75 9.21981 2.16719 9.49558 2.81064L9.67622 3.23215C9.8217 3.57159 10.1555 3.79167 10.5248 3.79167V3.79167C11.7994 3.79167 12.8327 4.82496 12.8327 6.0996V9.04167C12.8327 10.6525 11.5268 11.9583 9.91602 11.9583H4.08269C2.47185 11.9583 1.16602 10.6525 1.16602 9.04167V6.0996Z" stroke="white" stroke-width="0.875"/>
<circle cx="1.75" cy="1.75" r="1.75" transform="matrix(-1 0 0 1 8.74902 5.54102)" stroke="white" stroke-width="0.875"/>
</svg>
