<svg width="11" height="11" viewBox="0 0 11 11" fill="none" xmlns="http://www.w3.org/2000/svg">
<path d="M1.17644 3.97522C1.50219 2.5865 2.5865 1.50219 3.97522 1.17644C4.97813 0.941187 6.02187 0.941187 7.02478 1.17644C8.4135 1.50219 9.49782 2.5865 9.82356 3.97522C10.0588 4.97813 10.0588 6.02187 9.82356 7.02478C9.49782 8.4135 8.4135 9.49782 7.02478 9.82356C6.02187 10.0588 4.97813 10.0588 3.97522 9.82356C2.58651 9.49782 1.50219 8.4135 1.17644 7.02479C0.941187 6.02187 0.941187 4.97813 1.17644 3.97522Z" stroke="#1967FE"/>
<path d="M6.38398 4.61719L4.61621 6.38495M6.38398 6.38495L4.61621 4.61719" stroke="#1967FE" stroke-linecap="round"/>
</svg>
