<svg width="16" height="16" viewBox="0 0 16 16" fill="none" xmlns="http://www.w3.org/2000/svg">
<path d="M2.5555 10.0303L2.99896 9.92189L2.5555 10.0303ZM2.5555 6.34577L2.99896 6.45419L2.5555 6.34577ZM13.4445 6.34577L13.001 6.45419L13.4445 6.34577ZM13.4445 10.0303L13.001 9.92188L13.4445 10.0303ZM9.92008 13.4118L10.0203 13.8572L9.92008 13.4118ZM6.07988 13.4118L6.18012 12.9664L6.07988 13.4118ZM6.07988 2.96425L6.18012 3.40963L6.07988 2.96425ZM9.92008 2.96425L10.0203 2.51886L9.92008 2.96425ZM5.83655 2.375C5.83655 2.12287 5.63216 1.91848 5.38003 1.91848C5.1279 1.91848 4.92351 2.12287 4.92351 2.375H5.83655ZM4.92351 3.94609C4.92351 4.19822 5.1279 4.40261 5.38003 4.40261C5.63216 4.40261 5.83655 4.19822 5.83655 3.94609H4.92351ZM11.0764 2.375C11.0764 2.12287 10.8721 1.91848 10.6199 1.91848C10.3678 1.91848 10.1634 2.12287 10.1634 2.375H11.0764ZM10.1634 3.94609C10.1634 4.19822 10.3678 4.40261 10.6199 4.40261C10.8721 4.40261 11.0764 4.19822 11.0764 3.94609H10.1634ZM2.99896 9.92189C2.72013 8.78138 2.72013 7.59469 2.99896 6.45419L2.11203 6.23735C1.79838 7.52031 1.79838 8.85576 2.11203 10.1387L2.99896 9.92189ZM13.001 6.45419C13.2798 7.59469 13.2798 8.78138 13.001 9.92188L13.8879 10.1387C14.2016 8.85576 14.2016 7.52032 13.8879 6.23736L13.001 6.45419ZM9.81984 12.9664C8.62292 13.2358 7.37705 13.2358 6.18012 12.9664L5.97965 13.8572C7.30857 14.1563 8.69139 14.1563 10.0203 13.8572L9.81984 12.9664ZM6.18012 3.40963C7.37705 3.14025 8.62292 3.14025 9.81984 3.40963L10.0203 2.51886C8.69139 2.21978 7.30857 2.21978 5.97964 2.51886L6.18012 3.40963ZM6.18012 12.9664C4.59238 12.6091 3.36606 11.4235 2.99896 9.92189L2.11203 10.1387C2.56533 11.9929 4.06989 13.4274 5.97965 13.8572L6.18012 12.9664ZM10.0203 13.8572C11.9301 13.4274 13.4346 11.9929 13.8879 10.1387L13.001 9.92188C12.6339 11.4235 11.4076 12.6091 9.81984 12.9664L10.0203 13.8572ZM9.81984 3.40963C11.4076 3.76696 12.6339 4.95261 13.001 6.45419L13.8879 6.23736C13.4346 4.38321 11.9301 2.94867 10.0203 2.51886L9.81984 3.40963ZM5.97964 2.51886C4.06989 2.94867 2.56533 4.38321 2.11203 6.23735L2.99896 6.45419C3.36606 4.95261 4.59237 3.76697 6.18012 3.40963L5.97964 2.51886ZM2.76009 6.13081H13.2399V5.21777H2.76009V6.13081ZM4.92351 2.375V3.94609H5.83655V2.375H4.92351ZM10.1634 2.375V3.94609H11.0764V2.375H10.1634Z" fill="#373652"/>
</svg>
