<svg width="24" height="24" viewBox="0 0 24 23" fill="none" xmlns="http://www.w3.org/2000/svg">
<path d="M3.83327 14.6131L4.5627 14.4387L3.83327 14.6131ZM3.83327 8.96351L4.5627 9.13796L3.83327 8.96351ZM20.1667 8.96352L19.4373 9.13797L20.1667 8.96352ZM20.1667 14.6131L19.4373 14.4387L20.1667 14.6131ZM14.8801 19.7981L15.0483 20.529L14.8801 19.7981ZM9.11986 19.7981L9.28801 19.0672L9.11986 19.7981ZM9.11985 3.77851L9.28801 4.50942L9.11985 3.77851ZM14.8801 3.77851L15.0483 3.0476L14.8801 3.77851ZM8.82008 2.875C8.82008 2.46079 8.48429 2.125 8.07008 2.125C7.65587 2.125 7.32008 2.46079 7.32008 2.875H8.82008ZM7.32008 5.28401C7.32008 5.69822 7.65587 6.03401 8.07008 6.03401C8.48429 6.03401 8.82008 5.69822 8.82008 5.28401H7.32008ZM16.6799 2.875C16.6799 2.46079 16.3441 2.125 15.9299 2.125C15.5157 2.125 15.1799 2.46079 15.1799 2.875H16.6799ZM15.1799 5.28401C15.1799 5.69822 15.5157 6.03401 15.9299 6.03401C16.3441 6.03401 16.6799 5.69822 16.6799 5.28401H15.1799ZM4.5627 14.4387C4.14577 12.6954 4.14577 10.8813 4.5627 9.13796L3.10384 8.78906C2.63205 10.7617 2.63205 12.8149 3.10384 14.7876L4.5627 14.4387ZM19.4373 9.13797C19.8542 10.8813 19.8542 12.6954 19.4373 14.4387L20.8962 14.7876C21.3679 12.8149 21.3679 10.7617 20.8962 8.78906L19.4373 9.13797ZM14.712 19.0672C12.9283 19.4776 11.0717 19.4776 9.28801 19.0672L8.9517 20.529C10.9567 20.9903 13.0433 20.9903 15.0483 20.529L14.712 19.0672ZM9.28801 4.50942C11.0717 4.09905 12.9283 4.09905 14.712 4.50942L15.0483 3.0476C13.0433 2.58632 10.9567 2.58632 8.9517 3.0476L9.28801 4.50942ZM9.28801 19.0672C6.93626 18.5262 5.11028 16.7283 4.5627 14.4387L3.10384 14.7876C3.78687 17.6435 6.05721 19.8631 8.9517 20.529L9.28801 19.0672ZM15.0483 20.529C17.9428 19.8631 20.2131 17.6435 20.8962 14.7876L19.4373 14.4387C18.8897 16.7282 17.0637 18.5262 14.712 19.0672L15.0483 20.529ZM14.712 4.50942C17.0637 5.05046 18.8897 6.8484 19.4373 9.13797L20.8962 8.78906C20.2131 5.93319 17.9428 3.71351 15.0483 3.0476L14.712 4.50942ZM8.9517 3.0476C6.0572 3.71351 3.78687 5.93319 3.10384 8.78906L4.5627 9.13796C5.11028 6.84839 6.93626 5.05046 9.28801 4.50942L8.9517 3.0476ZM4.14016 8.68391H19.8598V7.18391H4.14016V8.68391ZM7.32008 2.875V5.28401H8.82008V2.875H7.32008ZM15.1799 2.875V5.28401H16.6799V2.875H15.1799Z" fill="#858BA0"/>
</svg>
