<svg width="14" height="14" viewBox="0 0 10 13" fill="none" xmlns="http://www.w3.org/2000/svg">
<path d="M0.644054 6.71601L1.06146 6.78327L0.644054 6.71601ZM1.42545 5.04701L1.49988 4.63082L1.26297 4.58845L1.10559 4.77053L1.42545 5.04701ZM0.621937 6.85327L0.204527 6.78601L0.204527 6.78601L0.621937 6.85327ZM0.734076 8.73112L0.327598 8.84745H0.327598L0.734076 8.73112ZM0.803282 8.97296L1.20976 8.85664V8.85664L0.803282 8.97296ZM3.75994 11.5772L3.6889 11.9939H3.6889L3.75994 11.5772ZM5.41283 11.5772L5.48388 11.9939L5.41283 11.5772ZM8.3695 8.97296L7.96303 8.85664V8.85664L8.3695 8.97296ZM8.43871 8.73113L8.84519 8.84745L8.43871 8.73113ZM8.55085 6.85327L8.96826 6.78601V6.78601L8.55085 6.85327ZM8.52874 6.71601L8.11133 6.78327L8.52874 6.71601ZM7.74734 5.04701L8.0672 4.77053L7.90982 4.58845L7.67291 4.63082L7.74734 5.04701ZM7.82829 5.03234L7.75195 4.6165L7.82829 5.03234ZM1.3445 5.03234L1.42084 4.6165L1.3445 5.03234ZM2.82169 2.77208H2.3989V3.19487H2.82169V2.77208ZM3.33856 1.56063L3.63307 1.86398L3.33856 1.56063ZM3.91107 1.18925L4.06882 1.58152V1.58152L3.91107 1.18925ZM5.26172 1.18925L5.10398 1.58152L5.26172 1.18925ZM6.21677 2.11645L6.60565 1.95053V1.95053L6.21677 2.11645ZM6.3511 2.77208V3.19487H6.7739V2.77208H6.3511ZM3.83272 6.76963C3.83272 6.53613 3.64343 6.34684 3.40993 6.34684C3.17642 6.34684 2.98713 6.53613 2.98713 6.76963H3.83272ZM2.98713 9.05395C2.98713 9.28745 3.17642 9.47674 3.40993 9.47674C3.64343 9.47674 3.83272 9.28745 3.83272 9.05395H2.98713ZM6.18566 6.76963C6.18566 6.53613 5.99637 6.34684 5.76287 6.34684C5.52937 6.34684 5.34007 6.53613 5.34007 6.76963H6.18566ZM5.34007 9.05395C5.34007 9.28745 5.52937 9.47674 5.76287 9.47674C5.99637 9.47674 6.18566 9.28745 6.18566 9.05395H5.34007ZM1.06146 6.78327C1.14993 6.23422 1.39124 5.73313 1.74532 5.32349L1.10559 4.77053C0.652469 5.29475 0.340918 5.93955 0.226643 6.64875L1.06146 6.78327ZM1.03935 6.92053L1.06146 6.78327L0.226643 6.64875L0.204527 6.78601L1.03935 6.92053ZM1.14055 8.6148C0.982737 8.06333 0.948275 7.48574 1.03935 6.92053L0.204527 6.78601C0.0936854 7.47391 0.135693 8.17686 0.327598 8.84745L1.14055 8.6148ZM1.20976 8.85664L1.14055 8.6148L0.327598 8.84745L0.396805 9.08928L1.20976 8.85664ZM3.83099 11.1604C2.56548 10.9447 1.54951 10.0439 1.20976 8.85664L0.396805 9.08928C0.829066 10.5998 2.11387 11.7255 3.6889 11.9939L3.83099 11.1604ZM5.34178 11.1604C4.84203 11.2456 4.33074 11.2456 3.83099 11.1604L3.6889 11.9939C4.2827 12.0952 4.89007 12.0952 5.48388 11.9939L5.34178 11.1604ZM7.96303 8.85664C7.62327 10.0439 6.6073 10.9447 5.34178 11.1604L5.48388 11.9939C7.05891 11.7255 8.34371 10.5998 8.77598 9.08929L7.96303 8.85664ZM8.03223 8.6148L7.96303 8.85664L8.77598 9.08929L8.84519 8.84745L8.03223 8.6148ZM8.13344 6.92052C8.22451 7.48573 8.19005 8.06333 8.03223 8.6148L8.84519 8.84745C9.0371 8.17686 9.07911 7.47391 8.96826 6.78601L8.13344 6.92052ZM8.11133 6.78327L8.13344 6.92052L8.96826 6.78601L8.94615 6.64875L8.11133 6.78327ZM7.42748 5.32349C7.78156 5.73313 8.02286 6.23421 8.11133 6.78327L8.94615 6.64875C8.83187 5.93955 8.52032 5.29475 8.0672 4.77053L7.42748 5.32349ZM7.67291 4.63082C5.63243 4.99573 3.54037 4.99573 1.49988 4.63082L1.35102 5.4632C3.48997 5.84572 5.68283 5.84572 7.82177 5.4632L7.67291 4.63082ZM1.65137 3.19487H7.52143V2.34928H1.65137V3.19487ZM8.28125 3.9202V4.0063H9.12684V3.9202H8.28125ZM0.891544 4.0063V3.9202H0.0459559V4.0063H0.891544ZM7.75195 4.6165C5.66014 5.0005 3.51265 5.0005 1.42084 4.6165L1.26816 5.44819C3.46092 5.85072 5.71188 5.85072 7.90463 5.44819L7.75195 4.6165ZM0.0459559 4.0063C0.0459559 4.72093 0.568149 5.31968 1.26816 5.44819L1.42084 4.6165C1.10492 4.5585 0.891544 4.29545 0.891544 4.0063H0.0459559ZM8.28125 4.0063C8.28125 4.29545 8.06788 4.5585 7.75195 4.6165L7.90463 5.44819C8.60464 5.31968 9.12684 4.72093 9.12684 4.0063H8.28125ZM7.52143 3.19487C7.95295 3.19487 8.28125 3.53132 8.28125 3.9202H9.12684C9.12684 3.0409 8.39619 2.34928 7.52143 2.34928V3.19487ZM1.65137 2.34928C0.776608 2.34928 0.0459559 3.0409 0.0459559 3.9202H0.891544C0.891544 3.53132 1.21985 3.19487 1.65137 3.19487V2.34928ZM2.56714 1.95053C2.45618 2.2106 2.3989 2.4898 2.3989 2.77208H3.24449C3.24449 2.60438 3.27849 2.43801 3.3449 2.28237L2.56714 1.95053ZM3.04406 1.25728C2.84036 1.45504 2.67809 1.69049 2.56714 1.95053L3.3449 2.28237C3.41132 2.12669 3.50903 1.98441 3.63307 1.86398L3.04406 1.25728ZM3.75333 0.796985C3.48884 0.903344 3.24773 1.05955 3.04406 1.25728L3.63307 1.86398C3.75713 1.74354 3.90509 1.64735 4.06882 1.58152L3.75333 0.796985ZM4.5864 0.636044C4.30084 0.636044 4.0178 0.690634 3.75333 0.796985L4.06882 1.58152C4.23256 1.51567 4.40847 1.48163 4.5864 1.48163V0.636044ZM5.41946 0.796985C5.155 0.690634 4.87196 0.636044 4.5864 0.636044V1.48163C4.76433 1.48163 4.94024 1.51567 5.10398 1.58152L5.41946 0.796985ZM6.12874 1.25728C5.92507 1.05955 5.68395 0.903344 5.41946 0.796985L5.10398 1.58152C5.2677 1.64735 5.41566 1.74354 5.53973 1.86399L6.12874 1.25728ZM6.60565 1.95053C6.4947 1.69049 6.33243 1.45504 6.12874 1.25728L5.53973 1.86399C5.66377 1.98441 5.76147 2.12669 5.8279 2.28237L6.60565 1.95053ZM6.7739 2.77208C6.7739 2.4898 6.71661 2.2106 6.60565 1.95053L5.82789 2.28237C5.8943 2.43801 5.92831 2.60438 5.92831 2.77208H6.7739ZM2.82169 3.19487L6.3511 3.19487V2.34928L2.82169 2.34928V3.19487ZM2.98713 6.76963V9.05395H3.83272V6.76963H2.98713ZM5.34007 6.76963V9.05395H6.18566V6.76963H5.34007Z" fill="#373652"/>
</svg>
