<svg width="14" height="14" viewBox="0 0 14 14" fill="none" xmlns="http://www.w3.org/2000/svg">
<g clip-path="url(#clip0_520_22790)">
<path d="M7 4.08301L7 8.16634M7 8.16634L8.75 6.41634M7 8.16634L5.25 6.41634" stroke="#1967FE" stroke-width="0.875" stroke-linecap="round" stroke-linejoin="round"/>
<path d="M9.33464 9.91699H7.0013H4.66797" stroke="#1967FE" stroke-width="0.875" stroke-linecap="round"/>
<path d="M12.8346 7.00033C12.8346 9.75018 12.8346 11.1251 11.9804 11.9794C11.1261 12.8337 9.75116 12.8337 7.0013 12.8337C4.25144 12.8337 2.87651 12.8337 2.02224 11.9794C1.16797 11.1251 1.16797 9.75018 1.16797 7.00033C1.16797 4.25047 1.16797 2.87554 2.02224 2.02126C2.87651 1.16699 4.25144 1.16699 7.0013 1.16699C9.75116 1.16699 11.1261 1.16699 11.9804 2.02126C12.5484 2.58928 12.7387 3.38748 12.8025 4.66699" stroke="#1967FE" stroke-width="0.875" stroke-linecap="round"/>
</g>
<defs>
<clipPath id="clip0_520_22790">
<rect width="14" height="14" rx="2.91667" fill="white"/>
</clipPath>
</defs>
</svg>
