<svg width="14" height="14" viewBox="0 0 10 11" fill="none" xmlns="http://www.w3.org/2000/svg">
<path d="M5.53557 1.50181L5.81072 1.77696L5.53557 1.50181ZM3.23155 3.80583L3.5067 4.08098L3.23155 3.80583ZM7.67444 3.64069L7.39929 3.36554V3.36554L7.67444 3.64069ZM5.37043 5.9447L5.09528 5.66955L5.37043 5.9447ZM1.73949 8.0005L1.64512 7.623H1.64511L1.73949 8.0005ZM1.29417 8.11183L1.38855 8.48933H1.38855L1.29417 8.11183ZM1.06442 7.88208L1.44192 7.97646L1.44192 7.97646L1.06442 7.88208ZM1.17575 7.43676L1.55325 7.53114H1.55325L1.17575 7.43676ZM5.26042 1.22667L2.95641 3.53068L3.5067 4.08098L5.81072 1.77696L5.26042 1.22667ZM7.39929 3.36554L5.09528 5.66955L5.64557 6.21985L7.94959 3.91583L7.39929 3.36554ZM1.64511 7.623L1.1998 7.73433L1.38855 8.48933L1.83386 8.378L1.64511 7.623ZM1.44192 7.97646L1.55325 7.53114L0.798252 7.34239L0.686923 7.78771L1.44192 7.97646ZM1.1998 7.73433C1.34603 7.69778 1.47848 7.83023 1.44192 7.97646L0.686923 7.78771C0.580989 8.21144 0.96481 8.59527 1.38855 8.48933L1.1998 7.73433ZM5.09528 5.66955C4.1435 6.62133 2.95094 7.29655 1.64512 7.623L1.83386 8.378C3.27653 8.01733 4.59406 7.27137 5.64557 6.21985L5.09528 5.66955ZM2.95641 3.53068C1.90489 4.5822 1.15892 5.89972 0.798252 7.34239L1.55325 7.53114C1.87971 6.22531 2.55492 5.03275 3.5067 4.08098L2.95641 3.53068ZM6.605 0.66972C6.10069 0.66972 5.61703 0.870059 5.26042 1.22667L5.81072 1.77696C6.02137 1.5663 6.30709 1.44796 6.605 1.44796V0.66972ZM7.7283 2.57125C7.7283 2.86917 7.60995 3.15488 7.39929 3.36554L7.94959 3.91583C8.30619 3.55923 8.50653 3.07557 8.50653 2.57125H7.7283ZM8.50653 2.57125C8.50653 1.52106 7.65519 0.66972 6.605 0.66972V1.44796C7.22538 1.44796 7.7283 1.95087 7.7283 2.57125H8.50653ZM7.11201 3.71091C6.77674 3.82267 6.30089 3.66503 5.90606 3.2702C5.51123 2.87537 5.35358 2.39952 5.46534 2.06424L4.72704 1.81814C4.48232 2.5523 4.8594 3.32413 5.35576 3.82049C5.85213 4.31686 6.62396 4.69393 7.35811 4.44921L7.11201 3.71091Z" fill="#373652"/>
<path d="M8.70404 10.4705H0.46875" stroke="#373652" stroke-width="0.778235" stroke-linecap="round" stroke-linejoin="round"/>
</svg>
