<svg width="16" height="16" viewBox="0 0 16 16" fill="none" xmlns="http://www.w3.org/2000/svg">
<path d="M5.43404 6.90203L7.14773 8.12636C7.65753 8.49059 8.34238 8.49059 8.85219 8.12636L10.5659 6.90203M1.92355 10.1028C1.58098 8.72319 1.58098 7.28072 1.92355 5.90112C2.37199 4.09518 3.80397 2.69884 5.62033 2.29637L5.92291 2.22932C7.29103 1.92616 8.7089 1.92616 10.077 2.22932L10.3796 2.29637C12.196 2.69884 13.6279 4.09518 14.0764 5.90112C14.4189 7.28072 14.4189 8.72319 14.0764 10.1028C13.6279 11.9087 12.1959 13.3051 10.3796 13.7075L10.077 13.7746C8.70889 14.0777 7.29103 14.0777 5.92291 13.7746L5.62033 13.7075C3.80397 13.3051 2.37199 11.9087 1.92355 10.1028Z" stroke="#858BA0" stroke-linecap="round"/>
</svg>
