<svg width="11" height="11" viewBox="0 0 5 8" fill="none" xmlns="http://www.w3.org/2000/svg">
<path d="M4.29424 4.95528L2.50464 6.74905L0.715044 4.95528C0.636492 4.87672 0.529953 4.83259 0.418863 4.83259C0.307774 4.83259 0.201234 4.87672 0.122682 4.95528C0.0441301 5.03383 0 5.14037 0 5.25146C0 5.36255 0.0441301 5.46909 0.122682 5.54764L2.20846 7.63342C2.24724 7.67252 2.29338 7.70355 2.34422 7.72473C2.39505 7.74591 2.44957 7.75681 2.50464 7.75681C2.55971 7.75681 2.61424 7.74591 2.66507 7.72473C2.71591 7.70355 2.76205 7.67252 2.80083 7.63342L4.88661 5.54764C4.9255 5.50874 4.95635 5.46257 4.9774 5.41175C4.99845 5.36093 5.00929 5.30646 5.00929 5.25146C5.00929 5.19645 4.99845 5.14198 4.9774 5.09116C4.95635 5.04035 4.9255 4.99417 4.88661 4.95528C4.84771 4.91638 4.80154 4.88553 4.75072 4.86448C4.6999 4.84343 4.64543 4.83259 4.59043 4.83259C4.53542 4.83259 4.48095 4.84343 4.43013 4.86448C4.37931 4.88553 4.33314 4.91638 4.29424 4.95528ZM0.715044 3.0447L2.50464 1.25093L4.29424 3.0447C4.33302 3.0838 4.37916 3.11483 4.43 3.13601C4.48083 3.15719 4.53536 3.16809 4.59043 3.16809C4.64549 3.16809 4.70002 3.15719 4.75085 3.13601C4.80169 3.11483 4.84783 3.0838 4.88661 3.0447C4.9257 3.00592 4.95674 2.95978 4.97792 2.90895C4.9991 2.85811 5.01 2.80359 5.01 2.74852C5.01 2.69345 4.9991 2.63893 4.97792 2.58809C4.95674 2.53726 4.9257 2.49112 4.88661 2.45234L2.80083 0.366558C2.76205 0.327459 2.71591 0.296425 2.66507 0.275246C2.61424 0.254068 2.55971 0.243164 2.50464 0.243164C2.44957 0.243164 2.39505 0.254068 2.34422 0.275246C2.29338 0.296425 2.24724 0.327459 2.20846 0.366558L0.122682 2.45234C0.0441301 2.53089 0 2.63743 0 2.74852C0 2.85961 0.0441301 2.96615 0.122682 3.0447C0.201234 3.12325 0.307774 3.16738 0.418863 3.16738C0.529953 3.16738 0.636492 3.12325 0.715044 3.0447Z" fill="#858BA0"/>
</svg>
