<svg width="32" height="32" viewBox="0 0 32 32" fill="none" xmlns="http://www.w3.org/2000/svg">
<g opacity="0.28">
<path d="M28.8933 19.0667L28.36 25.7333C28.16 27.7733 28 29.3333 24.3866 29.3333H7.61331C3.99997 29.3333 3.83997 27.7733 3.63997 25.7333L3.10664 19.0667C2.99997 17.96 3.34664 16.9333 3.97331 16.1467C3.98664 16.1333 3.98664 16.1333 3.99997 16.12C4.73331 15.2267 5.83997 14.6667 7.07997 14.6667H24.92C26.16 14.6667 27.2533 15.2267 27.9733 16.0933C27.9866 16.1067 28 16.12 28 16.1333C28.6533 16.92 29.0133 17.9467 28.8933 19.0667Z" stroke="#1967FE" stroke-width="1.5" stroke-miterlimit="10"/>
<path d="M4.66663 15.24V8.37333C4.66663 3.84 5.79996 2.70667 10.3333 2.70667H12.0266C13.72 2.70667 14.1066 3.21333 14.7466 4.06666L16.44 6.33333C16.8666 6.89333 17.12 7.24 18.2533 7.24H21.6533C26.1866 7.24 27.32 8.37333 27.32 12.9067V15.2933" stroke="#1967FE" stroke-width="1.5" stroke-miterlimit="10" stroke-linecap="round" stroke-linejoin="round"/>
<path d="M12.5734 22.6667H19.4267" stroke="#1967FE" stroke-width="1.5" stroke-miterlimit="10" stroke-linecap="round" stroke-linejoin="round"/>
</g>
</svg>
