<svg width="241" height="219" viewBox="0 0 241 219" fill="none" xmlns="http://www.w3.org/2000/svg">
<path d="M115.004 218.082C178.4 218.082 229.792 215.087 229.792 211.393C229.792 207.698 178.4 204.703 115.004 204.703C51.6075 204.703 0.214844 207.698 0.214844 211.393C0.214844 215.087 51.6075 218.082 115.004 218.082Z" fill="#F5F5F5"/>
<path d="M165.145 58.8898C165.026 60.6658 164.849 62.3233 164.612 63.9809C164.375 65.6385 164.079 67.2962 163.724 68.9538C163.014 72.269 162.066 75.5841 160.764 78.7809L160.231 79.9649L160.113 80.2609L159.994 80.4385C159.994 80.4977 159.935 80.5569 159.876 80.6161C159.698 80.9713 159.521 81.3265 159.166 81.6225C158.87 81.9777 158.455 82.2737 158.041 82.5105C157.626 82.7473 157.094 82.8657 156.679 82.9249C155.791 83.0433 155.14 82.8657 154.548 82.6881C153.423 82.3329 152.594 81.8001 151.825 81.2673C151.055 80.7345 150.404 80.1426 149.694 79.6098C147.148 77.2418 144.958 74.6961 143.004 71.9729L144.958 70.3153C146.082 71.3809 147.326 72.5057 148.51 73.5713C149.694 74.6369 150.937 75.6433 152.18 76.5313C152.772 77.0049 153.423 77.4193 154.074 77.7153C154.666 78.0705 155.318 78.3666 155.732 78.4258C155.91 78.485 156.087 78.4258 156.028 78.4258C155.969 78.4258 155.732 78.5441 155.673 78.6033C155.614 78.6625 155.614 78.6033 155.673 78.6033L155.85 78.1298L156.265 77.0641C157.271 74.1633 158.041 71.0849 158.692 67.9473C158.988 66.4081 159.225 64.8097 159.462 63.2705C159.698 61.7313 159.876 60.0738 159.994 58.5938L165.145 58.8898Z" fill="#FAAFBF"/>
<path d="M161.534 52.3788C159.344 52.9116 157.805 62.0284 157.805 62.0284L163.902 66.1724C163.902 66.1724 169.704 56.9964 168.046 54.5692C166.27 52.0828 164.79 51.55 161.534 52.3788Z" fill="#1967FE"/>
<path d="M161.534 52.3788C159.344 52.9116 157.805 62.0284 157.805 62.0284L163.902 66.1724C163.902 66.1724 169.704 56.9964 168.046 54.5692C166.27 52.0828 164.79 51.55 161.534 52.3788Z" fill="#1967FE"/>
<path opacity="0.4" d="M161.534 52.3788C159.344 52.9116 157.805 62.0284 157.805 62.0284L163.902 66.1724C163.902 66.1724 169.704 56.9964 168.046 54.5692C166.27 52.0828 164.79 51.55 161.534 52.3788Z" fill="black"/>
<path opacity="0.3" d="M161.771 54.3906L160.055 63.5666L163.488 65.8754L161.771 54.3906Z" fill="black"/>
<path d="M145.078 69.9646L142.177 65.4062L140.52 70.6158C140.52 70.6158 142.888 73.1023 145.019 72.5103L145.078 69.9646Z" fill="#FAAFBF"/>
<path d="M137.976 63.8594L136.852 68.2994L140.581 70.549L142.239 65.3986L137.976 63.8594Z" fill="#FAAFBF"/>
<path d="M173.496 205.229H168.168L167.812 192.797H173.141L173.496 205.229Z" fill="#FAAFBF"/>
<path d="M220.739 180.371L216.654 183.804L207.301 175.457L211.386 172.023L220.739 180.371Z" fill="#FAAFBF"/>
<path d="M215.526 183.388L219.492 178.829C219.611 178.652 219.847 178.652 220.025 178.77L224.051 181.375C224.465 181.671 224.524 182.263 224.228 182.618C222.807 184.157 222.038 184.868 220.321 186.821C219.255 188.064 217.835 189.959 216.355 191.616C214.934 193.274 213.099 191.912 213.572 191.084C215.644 187.354 215.171 185.992 215.171 184.157C215.171 183.92 215.348 183.624 215.526 183.388Z" fill="#373652"/>
<path d="M167.932 204.578H173.97C174.207 204.578 174.384 204.756 174.384 204.933L175.095 209.669C175.154 210.143 174.74 210.617 174.266 210.617C172.194 210.557 171.188 210.439 168.524 210.439C166.925 210.439 163.551 210.617 161.301 210.617C159.111 210.617 158.933 208.367 159.88 208.189C164.084 207.301 165.741 206.058 167.162 204.874C167.34 204.697 167.636 204.578 167.932 204.578Z" fill="#373652"/>
<path opacity="0.2" d="M167.812 192.805L167.99 199.198H173.318L173.141 192.805H167.812Z" fill="black"/>
<path opacity="0.2" d="M211.386 172.023L207.301 175.457L212.155 179.779L216.24 176.286L211.386 172.023Z" fill="black"/>
<path d="M161.535 52.3778C161.535 52.3778 158.989 53.2658 164.08 84.701C172.724 84.701 181.604 84.701 185.807 84.701C185.452 75.8802 185.452 70.3746 189.655 52.2594C189.655 52.2594 185.096 51.253 180.42 51.0162C176.749 50.8386 173.789 50.7202 170.533 51.0162C166.389 51.4306 161.535 52.3778 161.535 52.3778Z" fill="#1967FE"/>
<path opacity="0.4" d="M161.535 52.3778C161.535 52.3778 158.989 53.2658 164.08 84.701C172.724 84.701 181.604 84.701 185.807 84.701C185.452 75.8802 185.452 70.3746 189.655 52.2594C189.655 52.2594 185.096 51.253 180.42 51.0162C176.749 50.8386 173.789 50.7202 170.533 51.0162C166.389 51.4306 161.535 52.3778 161.535 52.3778Z" fill="black"/>
<path d="M180.48 51.0162C176.81 50.8386 173.85 50.7202 170.594 51.0162C170.061 51.0754 169.528 51.1346 168.995 51.1938C168.64 51.7858 168.344 52.6738 168.699 53.5026C169.41 55.2194 171.896 55.397 173.731 55.397C180.48 55.397 181.605 51.4898 181.664 51.3122L181.723 51.0754C181.309 51.0754 180.895 51.0162 180.48 51.0162Z" fill="white"/>
<path d="M179.471 39.8906C178.82 43.0874 178.228 48.889 180.478 51.0202C180.478 51.0202 179.59 54.217 173.729 54.217C167.217 54.217 170.651 51.0202 170.651 51.0202C174.203 50.1914 174.084 47.5274 173.492 45.1002L179.471 39.8906Z" fill="#FAAFBF"/>
<path opacity="0.2" d="M177.045 42.0156L173.434 45.094C173.611 45.686 173.67 46.278 173.73 46.87C175.091 46.6924 176.926 45.2124 177.104 43.7916C177.163 43.022 177.163 42.3116 177.045 42.0156Z" fill="black"/>
<path d="M175.8 22.5991C175.267 20.7639 174.794 17.8038 178.109 16.5014C176.807 14.903 176.511 11.9431 178.109 10.1671C179.707 8.39105 182.135 9.04225 182.135 9.04225C182.135 9.04225 182.845 4.72065 188.114 5.49025C193.383 6.25985 191.015 9.75265 191.015 9.75265C191.015 9.75265 198.178 8.33185 198.651 15.0806C199.125 21.8294 194.981 21.0006 194.981 21.0006C194.981 21.0006 198.178 23.6646 196.402 26.6246C194.626 29.5846 190.541 28.5783 190.541 28.5783C190.541 28.5783 188.587 33.7878 184.088 30.8278C179.53 27.8678 175.8 22.5991 175.8 22.5991Z" fill="#373652"/>
<path d="M165.148 26.5676C163.372 28.8764 164.142 31.4812 165.74 32.4876C169.588 34.9148 175.094 24.6732 173.673 23.4892C172.193 22.246 166.924 24.2588 165.148 26.5676Z" fill="#373652"/>
<path d="M181.192 21.1201C178.705 20.1137 176.16 21.1793 175.331 22.7185C173.377 26.4481 182.198 33.1377 184.744 28.5201C186.224 25.6785 183.796 22.1265 181.192 21.1201Z" fill="#1967FE"/>
<path d="M180.126 32.4882C180.303 37.8162 180.481 40.0658 178.113 43.0258C174.502 47.4658 167.93 46.5186 166.154 41.4274C164.556 36.8098 164.556 28.877 169.529 26.2722C174.383 23.6674 179.948 27.1602 180.126 32.4882Z" fill="#FAAFBF"/>
<path d="M179.296 35.2644C176.928 34.3764 176.336 31.594 176.691 30.5284C175.507 30.4692 172.902 30.0548 171.955 28.5748C170.12 29.7588 166.213 30.9428 165.798 28.9892C165.384 27.0356 171.245 21.9444 175.744 21.53C181.013 21.0564 186.281 26.266 184.92 31.2388C183.558 36.2708 179.296 35.2644 179.296 35.2644Z" fill="#373652"/>
<path d="M164.139 84.7031C164.139 84.7031 159.936 125.966 160.291 142.246C160.646 159.236 166.862 197.953 166.862 197.953H174.084C174.084 197.953 172.96 160.242 173.552 143.548C174.262 125.374 180.004 84.7031 180.004 84.7031H164.139Z" fill="#373652"/>
<path d="M174.679 198.25H166.214L165.562 195.527L175.094 195.172L174.679 198.25Z" fill="#1967FE"/>
<path opacity="0.2" d="M173.494 94.9482C168.166 105.663 172.428 125.259 174.322 132.599C175.27 121.647 176.927 108.268 178.17 98.441C177.401 92.8762 175.98 90.0346 173.494 94.9482Z" fill="black"/>
<path d="M169.883 84.7031C169.883 84.7031 174.796 127.564 178.526 141.358C182.966 157.697 210.376 179.66 210.376 179.66L215.94 174.924C215.94 174.924 196.049 151.007 192.675 142.423C185.452 124.071 191.609 96.6615 185.867 84.7031H169.883Z" fill="#373652"/>
<path d="M216.773 174.687L209.906 180.547L207.301 179.008L215.115 171.727L216.773 174.687Z" fill="#1967FE"/>
<path d="M172.254 34.7335C172.313 35.1479 172.076 35.5623 171.839 35.5623C171.603 35.5623 171.307 35.2663 171.247 34.8519C171.188 34.4375 171.425 34.0231 171.662 34.0231C171.958 33.9639 172.195 34.2599 172.254 34.7335Z" fill="#373652"/>
<path d="M167.398 35.1479C167.458 35.5623 167.221 35.9767 166.984 35.9767C166.688 35.9767 166.451 35.6807 166.392 35.2663C166.333 34.8519 166.57 34.4375 166.806 34.4375C167.102 34.4375 167.339 34.7335 167.398 35.1479Z" fill="#373652"/>
<path d="M166.925 34.4432L165.859 34.2656C165.859 34.2656 166.451 35.0352 166.925 34.4432Z" fill="#373652"/>
<path d="M168.759 35.8047C168.759 35.8047 168.226 37.6991 167.516 38.7055C168.108 39.1791 169.055 38.8239 169.055 38.8239L168.759 35.8047Z" fill="#FAAFBF"/>
<path d="M171.423 40.2447C171.186 40.3039 170.949 40.3632 170.712 40.3632C170.653 40.3632 170.594 40.3039 170.594 40.2447C170.594 40.1855 170.653 40.1264 170.712 40.1264C172.607 39.9488 173.376 38.5279 173.376 38.5279C173.435 38.4687 173.495 38.4688 173.554 38.4688C173.613 38.5279 173.613 38.5872 173.613 38.6464C173.554 38.7056 172.903 39.8303 171.423 40.2447Z" fill="#373652"/>
<path d="M181.37 36.1574C181.252 37.223 180.6 38.1702 179.89 38.7622C178.824 39.591 177.759 38.7622 177.64 37.4598C177.522 36.2758 177.936 34.4998 179.239 34.1446C180.541 33.7894 181.488 34.9142 181.37 36.1574Z" fill="#FAAFBF"/>
<path d="M172.782 31.6555C172.723 31.6555 172.663 31.6555 172.604 31.6555C171.657 31.0635 170.769 31.4779 170.769 31.4779C170.651 31.5371 170.473 31.4779 170.414 31.3595C170.355 31.2411 170.414 31.0635 170.532 31.0043C170.591 31.0043 171.657 30.4715 172.841 31.1819C172.959 31.2411 173.019 31.4187 172.9 31.5371C172.9 31.5963 172.841 31.6555 172.782 31.6555Z" fill="#373652"/>
<path d="M165.03 33.1387C164.971 33.1387 164.912 33.1387 164.853 33.1387C164.734 33.0795 164.675 32.9019 164.734 32.7835C165.385 31.5403 166.569 31.4219 166.629 31.4219C166.747 31.4219 166.865 31.5403 166.925 31.6587C166.925 31.7771 166.806 31.8955 166.688 31.9547C166.629 31.9547 165.741 32.0731 165.208 33.0203C165.149 33.0795 165.089 33.1387 165.03 33.1387Z" fill="#373652"/>
<path d="M191.904 58C193.147 61.0192 194.154 63.9792 195.042 67.0576C195.93 70.136 196.64 73.2736 196.995 76.5296C197.114 77.3584 197.114 78.1872 197.173 79.0752V79.1344V79.2528V79.5488C197.173 79.7264 197.173 79.904 197.114 80.0224C197.054 80.3184 196.995 80.6144 196.936 80.9104C196.758 81.4432 196.581 81.9168 196.344 82.3312C195.456 83.9888 194.45 85.2912 193.325 86.5344C191.134 88.9616 188.766 91.0928 186.221 92.9872L184.504 91.0928C186.458 88.784 188.47 86.416 190.128 83.9888C190.957 82.8048 191.726 81.5616 192.2 80.4368C192.318 80.1408 192.378 79.904 192.437 79.6672C192.437 79.5488 192.496 79.4896 192.496 79.4304C192.496 79.3712 192.496 79.3712 192.496 79.3712V79.312C192.437 78.6016 192.378 77.8912 192.259 77.1808C191.845 74.3392 191.016 71.4384 190.128 68.5376C189.24 65.696 188.234 62.736 187.168 60.0128L191.904 58Z" fill="#FAAFBF"/>
<path d="M189.713 52.2564C191.903 52.9076 194.508 60.426 194.508 60.426L186.043 66.4644C186.043 66.4644 182.964 60.1892 183.852 57.4068C184.859 54.4468 187.227 51.4868 189.713 52.2564Z" fill="#1967FE"/>
<path opacity="0.4" d="M189.713 52.2564C191.903 52.9076 194.508 60.426 194.508 60.426L186.043 66.4644C186.043 66.4644 182.964 60.1892 183.852 57.4068C184.859 54.4468 187.227 51.4868 189.713 52.2564Z" fill="black"/>
<path d="M214.046 185.993C213.81 185.993 213.632 185.874 213.454 185.697C213.336 185.519 213.336 185.401 213.336 185.282C213.514 184.631 215.408 184.098 215.586 184.039C215.645 184.039 215.704 184.039 215.704 184.098C215.763 184.157 215.763 184.217 215.704 184.217C215.349 184.868 214.698 185.933 214.046 185.993C214.106 185.993 214.106 185.993 214.046 185.993ZM215.467 184.335C214.757 184.572 213.75 184.986 213.691 185.341C213.691 185.401 213.691 185.46 213.75 185.519C213.869 185.697 214.046 185.756 214.165 185.697C214.461 185.697 214.994 185.164 215.467 184.335Z" fill="#1967FE"/>
<path d="M214.875 184.394C214.283 184.394 213.573 184.275 213.336 183.979C213.277 183.861 213.158 183.683 213.336 183.446C213.454 183.269 213.632 183.209 213.81 183.15C214.579 183.032 215.763 184.038 215.822 184.098C215.882 184.098 215.882 184.157 215.882 184.216C215.882 184.275 215.822 184.275 215.822 184.334C215.526 184.334 215.23 184.394 214.875 184.394ZM213.928 183.328H213.869C213.75 183.328 213.632 183.387 213.573 183.506C213.454 183.624 213.514 183.742 213.573 183.742C213.81 184.038 214.875 184.157 215.467 184.038C215.053 183.801 214.402 183.328 213.928 183.328Z" fill="#1967FE"/>
<path d="M165.977 205.531C165.444 205.531 164.97 205.472 164.674 205.176C164.497 204.998 164.438 204.82 164.438 204.584C164.438 204.406 164.497 204.288 164.674 204.228C165.325 203.873 167.457 204.939 167.694 205.057C167.753 205.057 167.753 205.116 167.753 205.176C167.753 205.235 167.693 205.294 167.634 205.294C167.161 205.412 166.51 205.531 165.977 205.531ZM164.97 204.406C164.852 204.406 164.793 204.406 164.734 204.465C164.674 204.465 164.674 204.524 164.674 204.584C164.674 204.761 164.734 204.88 164.793 204.998C165.089 205.294 165.977 205.353 167.161 205.116C166.45 204.82 165.503 204.406 164.97 204.406Z" fill="#1967FE"/>
<path d="M167.632 205.349C167.573 205.349 167.573 205.349 167.632 205.349C166.922 205.053 165.679 203.869 165.797 203.277C165.797 203.159 165.915 202.981 166.271 202.922C166.507 202.922 166.744 202.981 166.981 203.159C167.632 203.691 167.751 205.171 167.81 205.231C167.81 205.29 167.81 205.29 167.751 205.349C167.632 205.349 167.632 205.349 167.632 205.349ZM166.33 203.159H166.271C166.034 203.159 166.034 203.277 166.034 203.277C165.975 203.632 166.803 204.52 167.455 204.935C167.395 204.52 167.218 203.632 166.744 203.277C166.626 203.218 166.507 203.159 166.33 203.159Z" fill="#1967FE"/>
<path d="M186.162 83.3964L186.695 85.35C186.754 85.5276 186.577 85.646 186.34 85.646H163.963C163.785 85.646 163.607 85.5275 163.607 85.4091L163.43 83.4556C163.43 83.3372 163.607 83.2188 163.785 83.2188H185.807C185.985 83.2779 186.162 83.3372 186.162 83.3964Z" fill="#1967FE"/>
<path opacity="0.3" d="M186.162 83.3964L186.695 85.35C186.754 85.5276 186.577 85.646 186.34 85.646H163.963C163.785 85.646 163.607 85.5275 163.607 85.4091L163.43 83.4556C163.43 83.3372 163.607 83.2188 163.785 83.2188H185.807C185.985 83.2779 186.162 83.3372 186.162 83.3964Z" fill="white"/>
<path d="M183.201 85.884H183.793C183.911 85.884 183.97 85.8248 183.97 85.7656L183.674 83.22C183.674 83.1608 183.556 83.1016 183.438 83.1016H182.846C182.727 83.1016 182.668 83.1608 182.668 83.22L182.964 85.7656C183.023 85.8248 183.082 85.884 183.201 85.884Z" fill="#373652"/>
<path d="M165.681 85.884H166.273C166.392 85.884 166.451 85.8248 166.451 85.7656L166.155 83.22C166.155 83.1608 166.036 83.1016 165.918 83.1016H165.326C165.208 83.1016 165.148 83.1608 165.148 83.22L165.444 85.7656C165.444 85.8248 165.563 85.884 165.681 85.884Z" fill="#373652"/>
<path d="M174.439 85.884H175.031C175.149 85.884 175.209 85.8248 175.209 85.7656L174.913 83.22C174.913 83.1608 174.794 83.1016 174.676 83.1016H174.084C173.965 83.1016 173.906 83.1608 173.906 83.22L174.202 85.7656C174.202 85.8248 174.321 85.884 174.439 85.884Z" fill="#373652"/>
<path d="M171.777 33.9667L170.711 33.7891C170.711 33.7891 171.362 34.5587 171.777 33.9667Z" fill="#373652"/>
<path opacity="0.2" d="M152.185 109.385C124.184 120.278 92.6301 106.366 81.7373 78.3644C70.8445 50.3628 84.7565 18.8092 112.758 7.97559C140.76 -2.91721 172.313 10.9948 183.206 38.9964C194.099 66.998 180.187 98.4924 152.185 109.385Z" fill="#1967FE"/>
<path opacity="0.1" d="M142.355 5.13688L99.6721 102.047C99.0209 101.574 98.3697 101.041 97.7185 100.508C93.6337 97.1337 90.0225 93.1673 87.0625 88.6089L123.944 4.90008C130.16 3.95288 136.376 4.07128 142.355 5.13688Z" fill="white"/>
<path opacity="0.1" d="M172.669 22.0103L132.531 113.119C124.125 113.119 115.896 111.165 108.496 107.554L152.304 8.03906C160 10.9991 166.986 15.7943 172.669 22.0103Z" fill="white"/>
<path d="M87.7156 22.0096C107.962 -2.73598 144.429 -6.34718 169.175 13.8992C193.92 34.1456 197.532 70.6128 177.285 95.3584C157.039 120.104 120.572 123.715 95.826 103.469C71.0804 83.2224 67.4692 46.7552 87.7156 22.0096ZM173.615 92.3392C192.204 69.6064 188.888 36.1584 166.156 17.5696C143.423 -1.01918 109.975 2.29602 91.386 25.0288C72.7972 47.7616 76.1124 81.2096 98.8452 99.7984C121.519 118.387 155.026 115.013 173.615 92.3392Z" fill="#1967FE"/>
<path d="M178.709 92.0973C184.392 95.5309 189.838 99.2605 195.166 103.109C200.494 106.957 205.704 110.982 210.795 115.126C215.886 119.27 220.918 123.473 225.773 127.973C228.2 130.222 230.568 132.472 232.877 134.84C235.185 137.208 237.494 139.576 239.625 142.121C240.809 143.542 240.632 145.614 239.211 146.798C238.145 147.686 236.665 147.805 235.481 147.153C232.521 145.555 229.739 143.779 226.957 142.003C224.174 140.168 221.51 138.333 218.846 136.379C213.518 132.531 208.368 128.446 203.336 124.243C198.304 120.04 193.331 115.777 188.477 111.278C183.622 106.838 178.886 102.221 174.446 97.3069C173.144 95.8861 173.262 93.7549 174.683 92.4525C175.808 91.5053 177.465 91.3869 178.709 92.0973Z" fill="#1967FE"/>
<path d="M185.098 90.5L179.355 91.388L183.44 94.9992C183.44 94.9992 186.696 93.8152 186.992 91.6248L185.098 90.5Z" fill="#FAAFBF"/>
<path d="M176.277 94.6466L179.889 97.4882L184.269 94.5874L179.356 91.3906L176.277 94.6466Z" fill="#FAAFBF"/>
<path d="M149.224 100.867C150.231 97.9659 153.131 95.9531 156.151 95.9531H203.511C207.122 95.9531 209.667 98.7947 209.253 102.288L196.999 205C196.584 208.492 193.328 211.334 189.717 211.334H39.3491C35.7379 211.334 33.1923 208.492 33.6067 205L43.9667 118.745C44.3811 115.252 47.6371 112.411 51.2483 112.411H133.063C140.167 112.411 146.856 107.616 149.224 100.867Z" fill="#1967FE"/>
<path d="M36.3867 206.656H193.504L202.502 100.984H45.3851L36.3867 206.656Z" fill="#F0F0F0"/>
<path d="M36.3867 206.656H193.504L200.016 100.984H45.3851L36.3867 206.656Z" fill="#E0E0E0"/>
<path d="M36.3867 206.656H193.504L198.95 97.6094H41.8331L36.3867 206.656Z" fill="#F0F0F0"/>
<path d="M36.3867 206.656H193.504L195.635 97.6094H41.8331L36.3867 206.656Z" fill="#E0E0E0"/>
<path d="M36.3867 206.655H193.504L194.451 94.6484H37.3339L36.3867 206.655Z" fill="#F0F0F0"/>
<path d="M36.3857 206.656H193.503L190.306 96.7812H34.1953L36.3857 206.656Z" fill="#E0E0E0"/>
<path d="M36.391 206.656H193.508L188.89 97.6094H31.7734L36.391 206.656Z" fill="#F0F0F0"/>
<path d="M36.3883 206.654H193.505L186.105 99.2656H28.9883L36.3883 206.654Z" fill="#E0E0E0"/>
<path d="M36.3887 206.657H193.506L184.922 100.156H27.8047L36.3887 206.657Z" fill="#F0F0F0"/>
<path d="M115.068 107.555C115.186 104.595 117.376 102.523 120.455 102.523H167.815C171.426 102.523 174.919 105.424 175.57 109.035L194.277 204.939C194.988 208.551 192.62 211.451 189.068 211.451H38.6996C35.0884 211.451 31.5956 208.551 30.9444 204.939L15.4932 125.848C14.7828 122.237 17.1508 119.336 20.7028 119.336H102.576C109.68 119.336 114.831 114.482 115.068 107.555Z" fill="#1967FE"/>
<path opacity="0.2" d="M115.068 107.555C115.186 104.595 117.376 102.523 120.455 102.523H167.815C171.426 102.523 174.919 105.424 175.57 109.035L194.277 204.939C194.988 208.551 192.62 211.451 189.068 211.451H38.6996C35.0884 211.451 31.5956 208.551 30.9444 204.939L15.4932 125.848C14.7828 122.237 17.1508 119.336 20.7028 119.336H102.576C109.68 119.336 114.831 114.482 115.068 107.555Z" fill="black"/>
</svg>
