<svg width="12" height="12" viewBox="0 0 12 12" fill="none" xmlns="http://www.w3.org/2000/svg">
<g clip-path="url(#clip0_54_1421)">
<path d="M5.99988 8.22388C5.66439 8.22388 5.38318 8.50509 5.38318 8.84057C5.38318 9.17606 5.66439 9.45727 5.99988 9.45727C6.32302 9.45727 6.61657 9.17606 6.60177 8.85537C6.61657 8.50262 6.33782 8.22388 5.99988 8.22388Z" fill="#373652"/>
<path d="M11.708 10.4094C12.0953 9.74092 12.0977 8.94414 11.7129 8.27811L7.84994 1.58819C7.46759 0.914756 6.77689 0.515137 6.00232 0.515137C5.22775 0.515137 4.53705 0.917223 4.1547 1.58572L0.286776 8.28305C-0.098043 8.95648 -0.0955762 9.75818 0.294176 10.4267C0.678995 11.0878 1.36723 11.4849 2.13686 11.4849H9.85297C10.6251 11.4849 11.3182 11.0828 11.708 10.4094ZM10.8693 9.92593C10.6547 10.2959 10.2748 10.5155 9.8505 10.5155H2.1344C1.71504 10.5155 1.33763 10.3009 1.12795 9.93826C0.915806 9.57071 0.913339 9.13162 1.12548 8.7616L4.9934 2.06675C5.20308 1.69919 5.57803 1.48212 6.00232 1.48212C6.42414 1.48212 6.80156 1.70166 7.01123 2.06921L10.8767 8.76407C11.0839 9.12422 11.0814 9.55837 10.8693 9.92593Z" fill="#373652"/>
<path d="M5.84694 3.89461C5.55339 3.97848 5.37085 4.24489 5.37085 4.56804C5.38565 4.76292 5.39798 4.96026 5.41278 5.15514C5.45472 5.89764 5.49666 6.62534 5.53859 7.36784C5.55339 7.61945 5.74827 7.802 5.99988 7.802C6.25149 7.802 6.44883 7.60712 6.46117 7.35304C6.46117 7.2001 6.46117 7.05949 6.47597 6.90409C6.5031 6.428 6.53271 5.95191 6.55984 5.47582C6.57464 5.16747 6.60178 4.85912 6.61658 4.55077C6.61658 4.43977 6.60178 4.3411 6.55984 4.24242C6.43403 3.96614 6.14049 3.82554 5.84694 3.89461Z" fill="#373652"/>
</g>
<defs>
<clipPath id="clip0_54_1421">
<rect width="12" height="12" fill="white"/>
</clipPath>
</defs>
</svg>
