<svg width="16" height="16" viewBox="0 0 16 16" fill="none" xmlns="http://www.w3.org/2000/svg">
<path d="M13.8266 5.51627C13.6871 5.27796 13.3808 5.19785 13.1425 5.33735C12.9042 5.47685 12.8241 5.78313 12.9636 6.02144L13.8266 5.51627ZM13.3951 10.2337L12.9636 9.98116L12.9636 9.98116L13.3951 10.2337ZM6.10976 12.5197C5.84865 12.4298 5.56412 12.5686 5.47425 12.8297C5.38438 13.0908 5.52319 13.3754 5.7843 13.4652L6.10976 12.5197ZM2.60493 10.2337L3.03644 9.98116L3.03644 9.98116L2.60493 10.2337ZM2.60493 5.76886L3.03644 6.02144L3.03644 6.02144L2.60493 5.76886ZM9.27747 6.64685C9.4773 6.83743 9.7938 6.82992 9.98438 6.63009C10.175 6.43025 10.1675 6.11376 9.96762 5.92318L9.27747 6.64685ZM5.8288 9.94509C6.00823 10.155 6.32384 10.1797 6.53375 10.0003C6.74365 9.82085 6.76836 9.50523 6.58893 9.29533L5.8288 9.94509ZM10.8711 8.04177C10.8711 7.76563 10.6473 7.54177 10.3711 7.54177C10.095 7.54177 9.87113 7.76563 9.87113 8.04177H10.8711ZM7.99963 9.95015C7.72348 9.95015 7.49963 10.174 7.49963 10.4502C7.49963 10.7263 7.72348 10.9502 7.99963 10.9502V9.95015ZM13.6063 3.01873C13.8 2.82193 13.7976 2.50536 13.6008 2.31164C13.404 2.11792 13.0874 2.12042 12.8937 2.31721L13.6063 3.01873ZM2.76867 12.6029C2.57496 12.7997 2.57745 13.1163 2.77424 13.31C2.97103 13.5037 3.28761 13.5012 3.48133 13.3044L2.76867 12.6029ZM12.9636 6.02144C13.6788 7.24337 13.6788 8.75923 12.9636 9.98116L13.8266 10.4863C14.7245 8.95239 14.7245 7.05022 13.8266 5.51627L12.9636 6.02144ZM12.9636 9.98116C11.4811 12.5137 8.56024 13.3631 6.10976 12.5197L5.7843 13.4652C8.64958 14.4515 12.0849 13.4618 13.8266 10.4863L12.9636 9.98116ZM3.03644 9.98116C2.32119 8.75923 2.32119 7.24337 3.03644 6.02144L2.17342 5.51627C1.27553 7.05022 1.27553 8.95238 2.17342 10.4863L3.03644 9.98116ZM4.3017 11.4939C3.81823 11.0851 3.38788 10.5815 3.03644 9.98116L2.17342 10.4863C2.5821 11.1845 3.08595 11.7755 3.6561 12.2575L4.3017 11.4939ZM3.03644 6.02144C4.8455 2.9309 8.80112 2.34794 11.4155 4.28481L12.0108 3.4813C8.94489 1.20992 4.29948 1.88417 2.17342 5.51627L3.03644 6.02144ZM6.12888 8.04177C6.12888 6.97931 6.97376 6.13263 7.99963 6.13263V5.13263C6.40649 5.13263 5.12888 6.44214 5.12888 8.04177H6.12888ZM7.99963 6.13263C8.49283 6.13263 8.94172 6.32665 9.27747 6.64685L9.96762 5.92318C9.45483 5.43414 8.76195 5.13263 7.99963 5.13263V6.13263ZM6.58893 9.29533C6.30268 8.96045 6.12888 8.52295 6.12888 8.04177H5.12888C5.12888 8.76832 5.39243 9.43461 5.8288 9.94509L6.58893 9.29533ZM9.87113 8.04177C9.87113 9.10316 9.02579 9.95015 7.99963 9.95015V10.9502C9.59246 10.9502 10.8711 9.64095 10.8711 8.04177H9.87113ZM12.8937 2.31721L2.76867 12.6029L3.48133 13.3044L13.6063 3.01873L12.8937 2.31721Z" fill="#858BA0"/>
</svg>
