<svg width="16" height="16" viewBox="0 0 16 16" fill="none" xmlns="http://www.w3.org/2000/svg">
<path d="M3.10215 11.3528L2.63901 11.5412L2.63901 11.5412L3.10215 11.3528ZM2.87081 7.60003L3.35346 7.73061L2.87081 7.60003ZM13.1294 7.60003L12.6467 7.73061L13.1294 7.60003ZM12.898 11.3528L13.3611 11.5412L13.3611 11.5412L12.898 11.3528ZM9.35772 13.8965L9.28045 13.4025L9.35772 13.8965ZM6.64243 13.8965L6.71969 13.4025H6.71969L6.64243 13.8965ZM5.77088 5.07004L5.67123 4.58007L5.77088 5.07004ZM10.2293 5.07004L10.3289 4.58007L10.3289 4.58007L10.2293 5.07004ZM6.14327 13.8184L6.06601 14.3124L6.14327 13.8184ZM3.16407 11.505L3.62721 11.3166H3.62721L3.16407 11.505ZM9.85688 13.8184L9.93414 14.3124L9.85688 13.8184ZM12.8361 11.505L12.3729 11.3166L12.8361 11.505ZM10.4134 5.10748L10.3137 5.59745L10.3137 5.59745L10.4134 5.10748ZM5.58681 5.10748L5.68645 5.59745L5.58681 5.10748ZM4.59606 4.95568C4.59606 5.23183 4.81992 5.45568 5.09606 5.45568C5.37221 5.45568 5.59606 5.23183 5.59606 4.95568H4.59606ZM5.09606 4.75376H4.59606H5.09606ZM10.9041 4.75376L10.4041 4.75376V4.75376H10.9041ZM10.4041 4.95568C10.4041 5.23183 10.6279 5.45568 10.9041 5.45568C11.1802 5.45568 11.4041 5.23183 11.4041 4.95568H10.4041ZM7.23455 2.09613L7.11322 1.61107L7.11322 1.61107L7.23455 2.09613ZM8.76557 2.09613L8.88691 1.61107L8.76557 2.09613ZM5.68645 5.59745L5.87052 5.56001L5.67123 4.58007L5.48716 4.61751L5.68645 5.59745ZM10.1296 5.56001L10.3137 5.59745L10.513 4.61751L10.3289 4.58007L10.1296 5.56001ZM9.77962 13.3244L9.28045 13.4025L9.43498 14.3905L9.93414 14.3124L9.77962 13.3244ZM6.71969 13.4025L6.22054 13.3244L6.06601 14.3124L6.56516 14.3905L6.71969 13.4025ZM12.4349 11.1644L12.3729 11.3166L13.2992 11.6935L13.3611 11.5412L12.4349 11.1644ZM3.62721 11.3166L3.56528 11.1644L2.63901 11.5412L2.70093 11.6935L3.62721 11.3166ZM3.56528 11.1644C3.11969 10.0691 3.0458 8.86779 3.35346 7.73061L2.38816 7.46945C2.02318 8.8185 2.11122 10.2439 2.63901 11.5412L3.56528 11.1644ZM12.6467 7.73061C12.9544 8.86779 12.8805 10.0691 12.4349 11.1644L13.3611 11.5412C13.8889 10.2439 13.977 8.8185 13.612 7.46945L12.6467 7.73061ZM9.28045 13.4025C8.43247 13.5351 7.56767 13.5351 6.71969 13.4025L6.56516 14.3905C7.51554 14.5391 8.4846 14.5391 9.43498 14.3905L9.28045 13.4025ZM5.87052 5.56001C7.27461 5.27446 8.72556 5.27446 10.1296 5.56001L10.3289 4.58007C8.79333 4.26777 7.20684 4.26777 5.67123 4.58007L5.87052 5.56001ZM6.22054 13.3244C5.0376 13.1394 4.05586 12.3702 3.62721 11.3166L2.70093 11.6935C3.26725 13.0855 4.55097 14.0755 6.06601 14.3124L6.22054 13.3244ZM9.93414 14.3124C11.4492 14.0755 12.7329 13.0855 13.2992 11.6935L12.3729 11.3166C11.9443 12.3702 10.9625 13.1394 9.77962 13.3244L9.93414 14.3124ZM10.3137 5.59745C11.4609 5.83075 12.358 6.66336 12.6467 7.73061L13.612 7.46945C13.22 6.02039 12.0137 4.92272 10.513 4.61751L10.3137 5.59745ZM5.48716 4.61751C3.98643 4.92272 2.7802 6.02039 2.38816 7.46945L3.35346 7.73061C3.6422 6.66337 4.5393 5.83075 5.68645 5.59745L5.48716 4.61751ZM5.59606 4.95568V4.75376H4.59606V4.95568H5.59606ZM10.4041 4.75376V4.95568H11.4041V4.75376H10.4041ZM7.35589 2.58118C7.77819 2.47554 8.22193 2.47554 8.64424 2.58118L8.88691 1.61107C8.30527 1.46558 7.69485 1.46558 7.11322 1.61107L7.35589 2.58118ZM11.4041 4.75376C11.4041 3.26184 10.3567 1.97874 8.88691 1.61107L8.64424 2.58118C9.69336 2.84362 10.4041 3.74534 10.4041 4.75376L11.4041 4.75376ZM5.59606 4.75376C5.59606 3.74534 6.30676 2.84362 7.35589 2.58118L7.11322 1.61107C5.6434 1.97874 4.59606 3.26183 4.59606 4.75376H5.59606Z" fill="#858BA0"/>
<path d="M8 9.00195L8 10.3353" stroke="#858BA0" stroke-linecap="round"/>
</svg>
