<svg width="16" height="16" viewBox="0 0 16 16" fill="none" xmlns="http://www.w3.org/2000/svg">
<path fill-rule="evenodd" clip-rule="evenodd" d="M9.00732 2.53767C9.72274 1.82116 10.8831 1.82072 11.5991 2.53668L13.2603 4.19792C13.9702 4.90777 13.9775 6.05695 13.2768 6.77586L7.12141 13.0914C6.65106 13.5739 6.00595 13.8461 5.33233 13.846L3.49756 13.846C2.64473 13.8459 1.96366 13.135 1.99952 12.2823L2.07829 10.4096C2.10462 9.78357 2.36481 9.19024 2.80737 8.74701L9.00732 2.53767ZM10.8925 3.24433C10.5671 2.91889 10.0396 2.91909 9.71443 3.24477L8.60538 4.3555L11.4586 7.2087L12.5612 6.07735C12.8797 5.75057 12.8764 5.22822 12.5537 4.90556L10.8925 3.24433ZM3.51447 9.45412L7.89881 5.06314L10.7605 7.92488L6.40582 12.3929C6.12361 12.6824 5.73654 12.8457 5.33237 12.8457L3.49761 12.8456C3.21333 12.8456 2.9863 12.6086 2.99826 12.3244L3.07703 10.4517C3.09283 10.0761 3.24894 9.72006 3.51447 9.45412ZM13.676 13.7975C13.9521 13.7975 14.1758 13.5736 14.1758 13.2973C14.1758 13.0211 13.9521 12.7971 13.676 12.7971H9.59488C9.31884 12.7971 9.09507 13.0211 9.09507 13.2973C9.09507 13.5736 9.31884 13.7975 9.59488 13.7975H13.676Z" fill="#1967FE"/>
</svg>
