<svg width="29" height="37" viewBox="0 0 29 37" fill="none" xmlns="http://www.w3.org/2000/svg">
<path d="M4.57898 28.1346C4.57898 25.0786 6.79954 22.4755 9.81735 21.9939L10.0892 21.9505C12.5057 21.5649 14.9681 21.5649 17.3846 21.9505L17.6564 21.9939C20.6742 22.4755 22.8948 25.0786 22.8948 28.1346C22.8948 29.4555 21.824 30.5263 20.5031 30.5263H6.97067C5.64977 30.5263 4.57898 29.4555 4.57898 28.1346Z" stroke="white" stroke-width="2.28947"/>
<path d="M19.079 11.4473C19.079 14.3977 16.6872 16.7894 13.7369 16.7894C10.7865 16.7894 8.39477 14.3977 8.39477 11.4473C8.39477 8.49697 10.7865 6.10522 13.7369 6.10522C16.6872 6.10522 19.079 8.49697 19.079 11.4473Z" stroke="white" stroke-width="2.28947"/>
</svg>
