<svg width="212" height="91" viewBox="0 0 212 91" fill="none" xmlns="http://www.w3.org/2000/svg">
<g clip-path="url(#clip0_260_14879)">
<path d="M11.2723 89.4919L0.630371 56.6563H12.5566L17.1437 73.0741L22.4646 56.5703H32.5561L37.9688 73.1601L42.6475 56.6563H54.3903L43.7484 89.4919H33.1983L27.5104 72.5584L21.7307 89.4919H11.2723Z" fill="#333333"/>
<path d="M70.7221 90.0958C62.7407 90.0958 56.3188 87.6031 51.5483 82.6175L59.438 75.2252C62.7407 78.4056 66.3186 80.0388 70.1717 80.0388C71.9147 80.0388 73.2908 79.609 74.3917 78.8354C75.4009 78.0618 75.9513 77.0303 75.9513 75.741V75.655C75.9513 74.2797 75.3091 73.2482 74.0248 72.4746C72.7404 71.701 70.9056 71.3571 68.6121 71.3571H63.3829L61.5481 65.2542L71.9147 56.4865H54.6675V47.0312H87.2354V55.3691L76.5018 63.9648C84.2997 65.598 88.1528 69.552 88.1528 75.8269V75.9129C88.1528 80.1248 86.5015 83.5631 83.2906 86.0558C79.9879 88.8065 75.8596 90.0958 70.7221 90.0958Z" fill="#FF0036"/>
<path d="M88.7943 89.2362V56.6584H100.996V61.2141C103.932 57.6899 107.418 55.8848 111.454 55.8848C115.124 55.8848 118.06 57.0022 120.17 59.1511C122.28 61.3001 123.289 64.2226 123.289 67.9188V89.2362H111.087V71.529C111.087 69.8098 110.629 68.4345 109.803 67.489C108.885 66.5435 107.693 66.0277 106.225 66.0277C104.665 66.0277 103.473 66.5435 102.464 67.489C101.546 68.4345 101.088 69.8098 101.088 71.529V89.1502H88.7943V89.2362Z" fill="#333333"/>
<path d="M136.313 89.9237C132.643 89.9237 129.708 88.8922 127.598 86.7432C125.488 84.5943 124.478 81.6718 124.478 77.9756V56.6582H136.68V74.2794C136.68 75.9986 137.139 77.3739 138.056 78.3194C138.973 79.265 140.166 79.7807 141.634 79.7807C143.102 79.7807 144.386 79.265 145.303 78.3194C146.221 77.3739 146.68 75.9986 146.68 74.2794V56.6582H158.881V89.236H146.68V84.7662C143.836 88.2045 140.441 89.9237 136.313 89.9237Z" fill="#333333"/>
<path d="M174.569 89.9236C166.772 89.9236 162.827 86.3134 162.827 79.1789V65.8556H158.698V56.6581H162.827V48.4062H175.028V56.6581H183.101V65.8556H175.028V76.8581C175.028 79.007 176.129 80.1245 178.331 80.1245C179.799 80.1245 181.358 79.7806 182.918 79.007V87.9466C180.624 89.2359 177.872 89.9236 174.569 89.9236Z" fill="#333333"/>
<path d="M197.414 89.9219C191.176 89.9219 185.672 88.2887 180.993 85.1083L185.58 78.1457C189.617 80.6385 193.561 81.8419 197.506 81.8419C199.525 81.8419 200.625 81.2402 200.625 80.1227V80.0368C200.625 79.4351 200.258 79.0053 199.433 78.6615C198.607 78.3176 197.139 77.8019 195.029 77.2861C193.011 76.7704 191.451 76.3406 190.075 75.8249C188.791 75.3091 187.506 74.7074 186.314 73.9338C185.121 73.1602 184.204 72.1287 183.562 71.0113C182.919 69.8079 182.644 68.4325 182.644 66.8853V66.7134C182.644 63.3611 183.929 60.6964 186.497 58.8053C189.066 56.9143 192.46 55.9688 196.589 55.9688C201.91 55.9688 206.772 57.2581 210.9 59.7509L206.68 66.9713C202.827 64.9943 199.433 63.9628 196.405 63.9628C194.479 63.9628 193.561 64.4785 193.561 65.51V65.596C193.561 66.1977 193.928 66.6275 194.754 66.9713C195.58 67.3151 197.048 67.8308 199.158 68.4326C203.194 69.55 206.313 70.7534 208.423 72.3006C210.533 73.7619 211.543 75.9108 211.543 78.8334V78.9193C211.543 82.4436 210.258 85.1083 207.689 86.9993C205.212 88.9763 201.726 89.9219 197.414 89.9219Z" fill="#333333"/>
<path d="M137.047 12.7339C137.047 12.7339 138.607 11.2727 139.891 10.3271C139.891 10.3271 142.827 6.88885 146.221 5.77141C146.221 5.77141 149.616 4.82588 151.084 5.77141C151.084 5.77141 151.359 4.13822 153.01 3.45056C153.01 3.45056 157.322 1.98929 158.148 1.38759C158.148 1.38759 158.239 3.79439 158.79 4.99779C158.79 4.99779 159.249 7.23268 156.405 8.608C156.405 8.608 157.964 11.5305 158.056 13.2497C158.056 13.2497 165.12 26.4011 168.056 28.8939C168.056 28.8939 174.844 36.0284 174.202 41.8734C174.202 41.8734 176.129 38.3492 182 35.1688C182 35.1688 189.248 31.6445 187.229 20.728C187.229 20.728 185.762 13.8514 178.606 15.3986C178.606 15.3986 173.652 16.602 177.046 21.0718C177.046 21.0718 177.23 22.1033 176.679 21.8454C176.679 21.8454 174.111 21.1578 173.377 20.2122C173.377 20.2122 172.826 20.1263 173.468 21.2437C173.468 21.2437 159.065 13.5076 171.817 3.53652C171.817 3.53652 171.634 2.59099 169.615 3.3646C169.615 3.3646 185.303 -5.31708 198.697 7.23268C198.697 7.23268 207.871 18.2352 202.091 31.1288C202.091 31.1288 199.431 36.802 191.358 40.67C191.358 40.67 181.45 45.6556 180.899 45.9994L181.725 46.1713C181.725 46.1713 178.331 46.859 177.964 47.6326L178.055 48.1483C178.055 48.1483 175.578 48.5781 172.734 50.813C172.734 50.813 169.89 54.2513 166.588 54.6811C166.588 54.6811 166.863 54.853 167.138 53.9934C167.138 53.9934 164.845 53.4777 164.478 55.9704C164.478 55.9704 164.661 57.0879 159.432 56.6581C159.432 56.6581 149.891 56.3143 146.772 57.2598L147.139 56.5721C147.139 56.5721 146.038 56.4002 145.671 56.83C145.671 56.83 145.671 54.9389 149.708 55.2828C149.708 55.2828 145.946 53.0479 145.946 49.6096C145.946 49.6096 145.212 46.0854 147.689 42.5611C147.689 42.5611 151.451 36.3722 148.79 35.5126C148.79 35.5126 148.24 34.9969 147.689 36.0284C147.689 36.0284 146.772 36.716 144.203 33.9654C144.203 33.9654 140.442 30.4411 140.35 34.5671C140.35 34.5671 140.258 35.6845 139.249 34.2233C139.249 34.2233 138.699 34.3952 138.882 34.9969C138.882 34.9969 136.772 34.2233 137.69 32.3322C137.69 32.3322 138.057 28.8079 142.46 29.1518C142.46 29.1518 141.543 24.596 143.102 22.8769C143.102 22.8769 142.093 22.619 142.001 23.3926C142.001 23.3926 142.001 20.8139 144.845 18.8369C144.845 18.8369 144.845 17.6335 143.286 18.1492C143.286 18.0633 136.222 17.3756 137.047 12.7339Z" fill="#FF0036"/>
</g>
<defs>
<clipPath id="clip0_260_14879">
<rect width="211.003" height="89.5674" fill="white" transform="translate(0.629272 0.527344)"/>
</clipPath>
</defs>
</svg>
