<svg width="16" height="16" viewBox="0 0 11 11" fill="none" xmlns="http://www.w3.org/2000/svg">
<path d="M8.69327 2.72729V4.09093H7.15918" stroke="white" stroke-width="0.681818" stroke-linecap="round" stroke-linejoin="round"/>
<path d="M8.52276 3.97845L8.14435 3.60005C7.86763 3.03179 7.43675 2.55277 6.90088 2.21762C6.365 1.88247 5.74571 1.7047 5.11367 1.70459C4.48849 1.70401 3.87518 1.87536 3.34084 2.19989C2.80649 2.52443 2.37167 2.98965 2.08394 3.54468C1.7962 4.09971 1.66663 4.72318 1.7094 5.3469C1.75217 5.97061 1.96563 6.57056 2.32643 7.08112C2.68723 7.59168 3.18149 7.9932 3.75513 8.24176C4.32878 8.49031 4.95973 8.57634 5.57898 8.49043C6.19823 8.40452 6.78193 8.14998 7.26625 7.75464C7.75056 7.35931 8.11685 6.83841 8.32503 6.24891" stroke="white" stroke-width="0.681818" stroke-linecap="round" stroke-linejoin="round"/>
</svg>
