<svg width="16" height="16" viewBox="0 0 16 16" fill="none" xmlns="http://www.w3.org/2000/svg">
<g clip-path="url(#clip0_534_24078)">
<path d="M0.666016 2.66602V6.66602H4.66602" stroke="white" stroke-width="1.5" stroke-linecap="round" stroke-linejoin="round"/>
<path d="M15.334 13.334V9.33398H11.334" stroke="white" stroke-width="1.5" stroke-linecap="round" stroke-linejoin="round"/>
<path d="M13.6593 6.00038C13.3212 5.0449 12.7466 4.19064 11.989 3.51732C11.2315 2.844 10.3157 2.37355 9.32716 2.14988C8.33861 1.92621 7.30951 1.9566 6.33589 2.23823C5.36226 2.51985 4.47585 3.04352 3.75935 3.76038L0.666016 6.66704M15.3327 9.33371L12.2393 12.2404C11.5229 12.9572 10.6364 13.4809 9.66281 13.7625C8.68919 14.0441 7.66009 14.0745 6.67154 13.8509C5.68299 13.6272 4.76722 13.1568 4.00966 12.4834C3.2521 11.8101 2.67746 10.9559 2.33935 10.0004" stroke="white" stroke-width="1.5" stroke-linecap="round" stroke-linejoin="round"/>
</g>
<defs>
<clipPath id="clip0_534_24078">
<rect width="16" height="16" fill="white"/>
</clipPath>
</defs>
</svg>
