<svg width="24" height="24" viewBox="0 0 24 24" fill="none" xmlns="http://www.w3.org/2000/svg">
<path fill-rule="evenodd" clip-rule="evenodd" d="M20.5399 16.807C20.7615 16.5772 20.8134 16.2324 20.6692 15.9476L19.939 14.5057C18.2788 11.2269 14.9158 9.16024 11.2406 9.16024H10.8367C10.8113 8.6069 10.7785 8.05381 10.7382 7.50113L10.6697 6.56217C10.6144 5.80365 9.76867 5.37963 9.1278 5.78913C7.01209 7.14102 5.17281 8.88297 3.70799 10.9221L3.24781 11.5627C3.05998 11.8242 3.05998 12.1764 3.24781 12.4379L3.70799 13.0785C5.17281 15.1176 7.01209 16.8596 9.1278 18.2115C9.76867 18.621 10.6144 18.1969 10.6697 17.4384L10.7382 16.4995C10.7863 15.8399 10.8238 15.1798 10.8507 14.5193C13.0228 14.4556 15.1925 14.8936 17.1864 15.8139L19.6858 16.9674C19.9756 17.1012 20.3183 17.0368 20.5399 16.807ZM18.3291 14.6892L17.815 14.4519C15.3833 13.3296 12.7153 12.8558 10.0678 13.0591C9.68551 13.0885 9.38691 13.4015 9.37558 13.7848C9.34988 14.6539 9.30541 15.5227 9.24215 16.3904L9.23581 16.4774C7.57301 15.3037 6.11599 13.8596 4.92625 12.2034L4.78038 12.0003L4.92625 11.7972C6.11599 10.141 7.57301 8.69694 9.23581 7.52322L9.24215 7.61018C9.29861 8.38475 9.34011 9.16012 9.36665 9.93588C9.38047 10.3399 9.71198 10.6602 10.1162 10.6602L11.2406 10.6602C14.1615 10.6602 16.8492 12.2029 18.3291 14.6892Z" fill="white"/>
</svg>
