<svg width="44" height="38" viewBox="0 0 44 38" fill="none" xmlns="http://www.w3.org/2000/svg">
<path d="M0.043216 8.00963C0.043216 8.00963 1.04731 7.05764 1.87421 6.44165C1.87421 6.44165 3.76426 4.20166 5.94963 3.47367C5.94963 3.47367 8.135 2.85767 9.08003 3.47367C9.08003 3.47367 9.25723 2.40968 10.3204 1.96168C10.3204 1.96168 13.0964 1.00969 13.628 0.617691C13.628 0.617691 13.687 2.18568 14.0414 2.96967C14.0414 2.96967 14.3367 4.42566 12.5057 5.32165C12.5057 5.32165 13.5098 7.22564 13.5689 8.34563C13.5689 8.34563 18.1168 16.9136 20.0069 18.5375C20.0069 18.5375 24.3776 23.1855 23.9642 26.9935C23.9642 26.9935 25.2045 24.6975 28.9846 22.6255C28.9846 22.6255 33.6507 20.3295 32.3513 13.2176C32.3513 13.2176 31.4063 8.73763 26.7993 9.74562C26.7993 9.74562 23.6098 10.5296 25.7952 13.4416C25.7952 13.4416 25.9133 14.1136 25.5589 13.9456C25.5589 13.9456 23.9051 13.4976 23.4326 12.8816C23.4326 12.8816 23.0782 12.8256 23.4917 13.5536C23.4917 13.5536 14.2186 8.51363 22.4285 2.01768C22.4285 2.01768 22.3104 1.40169 21.011 1.90568C21.011 1.90568 31.1109 -3.75027 39.7343 4.42566C39.7343 4.42566 45.6407 11.5936 41.9197 19.9935C41.9197 19.9935 40.2068 23.6895 35.0092 26.2095C35.0092 26.2095 28.6303 29.4575 28.2759 29.6815L28.8074 29.7935C28.8074 29.7935 26.6221 30.2415 26.3858 30.7455L26.4449 31.0815C26.4449 31.0815 24.8502 31.3614 23.0192 32.8174C23.0192 32.8174 21.1882 35.0574 19.0619 35.3374C19.0619 35.3374 19.2391 35.4494 19.4163 34.8894C19.4163 34.8894 17.9397 34.5534 17.7034 36.1774C17.7034 36.1774 17.8215 36.9054 14.4549 36.6254C14.4549 36.6254 8.3122 36.4014 6.30402 37.0174L6.54027 36.5694C6.54027 36.5694 5.83151 36.4574 5.59525 36.7374C5.59525 36.7374 5.59525 35.5054 8.19407 35.7294C8.19407 35.7294 5.77243 34.2734 5.77243 32.0334C5.77243 32.0334 5.29993 29.7375 6.89466 27.4415C6.89466 27.4415 9.31629 23.4095 7.60343 22.8495C7.60343 22.8495 7.24904 22.5135 6.89466 23.1855C6.89466 23.1855 6.30402 23.6335 4.65022 21.8415C4.65022 21.8415 2.22859 19.5455 2.16953 22.2335C2.16953 22.2335 2.11047 22.9615 1.46076 22.0095C1.46076 22.0095 1.10637 22.1215 1.2245 22.5135C1.2245 22.5135 -0.133978 22.0095 0.456663 20.7775C0.456663 20.7775 0.692927 18.4816 3.528 18.7055C3.528 18.7055 2.93736 15.7376 3.94145 14.6176C3.94145 14.6176 3.29175 14.4496 3.23268 14.9536C3.23268 14.9536 3.23268 13.2736 5.06367 11.9856C5.06367 11.9856 5.06367 11.2016 4.05958 11.5376C4.05958 11.4816 -0.488361 11.0336 0.043216 8.00963Z" fill="#FF0036"/>
</svg>
