<svg width="16" height="16" viewBox="0 0 16 16" fill="none" xmlns="http://www.w3.org/2000/svg">
<path d="M8.00004 12.6666C10.5774 12.6666 12.6667 10.5772 12.6667 7.99992C12.6667 5.42259 10.5774 3.33325 8.00004 3.33325C5.42271 3.33325 3.33337 5.42259 3.33337 7.99992C3.33337 10.5772 5.42271 12.6666 8.00004 12.6666Z" fill="#858BA0"/>
<path d="M7.99996 15.3067C7.63329 15.3067 7.33329 15.0334 7.33329 14.6667V14.6134C7.33329 14.2467 7.63329 13.9467 7.99996 13.9467C8.36663 13.9467 8.66663 14.2467 8.66663 14.6134C8.66663 14.9801 8.36663 15.3067 7.99996 15.3067ZM12.76 13.4267C12.5866 13.4267 12.42 13.3601 12.2866 13.2334L12.2 13.1467C11.94 12.8867 11.94 12.4667 12.2 12.2067C12.46 11.9467 12.88 11.9467 13.14 12.2067L13.2266 12.2934C13.4866 12.5534 13.4866 12.9734 13.2266 13.2334C13.1 13.3601 12.9333 13.4267 12.76 13.4267ZM3.23996 13.4267C3.06663 13.4267 2.89996 13.3601 2.76663 13.2334C2.50663 12.9734 2.50663 12.5534 2.76663 12.2934L2.85329 12.2067C3.11329 11.9467 3.53329 11.9467 3.79329 12.2067C4.05329 12.4667 4.05329 12.8867 3.79329 13.1467L3.70663 13.2334C3.57996 13.3601 3.40663 13.4267 3.23996 13.4267ZM14.6666 8.66675H14.6133C14.2466 8.66675 13.9466 8.36675 13.9466 8.00008C13.9466 7.63341 14.2466 7.33342 14.6133 7.33342C14.98 7.33342 15.3066 7.63341 15.3066 8.00008C15.3066 8.36675 15.0333 8.66675 14.6666 8.66675ZM1.38663 8.66675H1.33329C0.966626 8.66675 0.666626 8.36675 0.666626 8.00008C0.666626 7.63341 0.966626 7.33342 1.33329 7.33342C1.69996 7.33342 2.02663 7.63341 2.02663 8.00008C2.02663 8.36675 1.75329 8.66675 1.38663 8.66675ZM12.6733 3.99341C12.5 3.99341 12.3333 3.92675 12.2 3.80008C11.94 3.54008 11.94 3.12008 12.2 2.86008L12.2866 2.77341C12.5466 2.51341 12.9666 2.51341 13.2266 2.77341C13.4866 3.03341 13.4866 3.45341 13.2266 3.71341L13.14 3.80008C13.0133 3.92675 12.8466 3.99341 12.6733 3.99341ZM3.32663 3.99341C3.15329 3.99341 2.98663 3.92675 2.85329 3.80008L2.76663 3.70675C2.50663 3.44675 2.50663 3.02675 2.76663 2.76675C3.02663 2.50675 3.44663 2.50675 3.70663 2.76675L3.79329 2.85342C4.05329 3.11342 4.05329 3.53341 3.79329 3.79341C3.66663 3.92675 3.49329 3.99341 3.32663 3.99341ZM7.99996 2.02675C7.63329 2.02675 7.33329 1.75341 7.33329 1.38675V1.33341C7.33329 0.966748 7.63329 0.666748 7.99996 0.666748C8.36663 0.666748 8.66663 0.966748 8.66663 1.33341C8.66663 1.70008 8.36663 2.02675 7.99996 2.02675Z" fill="#858BA0"/>
</svg>
