<svg width="8" height="5" viewBox="0 0 8 5" fill="none" xmlns="http://www.w3.org/2000/svg">
<path opacity="0.3" d="M4.00273 1.61053L1.14273 4.4772C1.01719 4.60274 0.846929 4.67326 0.669394 4.67326C0.49186 4.67326 0.321597 4.60274 0.196061 4.4772C0.0705253 4.35166 0 4.1814 0 4.00387C0 3.82633 0.0705253 3.65607 0.196061 3.53053L3.52939 0.197199C3.59137 0.134713 3.6651 0.0851171 3.74634 0.0512713C3.82758 0.0174255 3.91472 0 4.00273 0C4.09074 0 4.17787 0.0174255 4.25911 0.0512713C4.34035 0.0851171 4.41409 0.134713 4.47606 0.197199L7.80939 3.53053C7.87188 3.59251 7.92148 3.66624 7.95532 3.74748C7.98917 3.82872 8.00659 3.91586 8.00659 4.00387C8.00659 4.09187 7.98917 4.17901 7.95532 4.26025C7.92148 4.34149 7.87188 4.41522 7.80939 4.4772C7.74742 4.53968 7.67368 4.58928 7.59244 4.62313C7.51121 4.65697 7.42407 4.6744 7.33606 4.6744C7.24805 4.6744 7.16092 4.65697 7.07968 4.62313C6.99844 4.58928 6.9247 4.53968 6.86273 4.4772L4.00273 1.61053Z" fill="#373652"/>
</svg>
