<svg width="8" height="5" viewBox="0 0 8 5" fill="none" xmlns="http://www.w3.org/2000/svg">
<path opacity="0.3" d="M6.86273 0.530533L4.00273 3.3972L1.14273 0.530533C1.01719 0.404997 0.846929 0.334473 0.669394 0.334473C0.49186 0.334473 0.321597 0.404997 0.196061 0.530533C0.0705253 0.656069 0 0.826333 0 1.00387C0 1.1814 0.0705253 1.35166 0.196061 1.4772L3.52939 4.81053C3.59137 4.87302 3.6651 4.92262 3.74634 4.95646C3.82758 4.99031 3.91472 5.00773 4.00273 5.00773C4.09074 5.00773 4.17787 4.99031 4.25911 4.95646C4.34035 4.92262 4.41409 4.87302 4.47606 4.81053L7.80939 1.4772C7.87155 1.41504 7.92086 1.34125 7.9545 1.26003C7.98814 1.17882 8.00545 1.09177 8.00545 1.00387C8.00545 0.915961 7.98814 0.828915 7.9545 0.7477C7.92086 0.666486 7.87155 0.592692 7.80939 0.530533C7.74723 0.468374 7.67344 0.419067 7.59223 0.385427C7.51101 0.351786 7.42397 0.334473 7.33606 0.334473C7.24815 0.334473 7.16111 0.351786 7.07989 0.385427C6.99868 0.419067 6.92489 0.468374 6.86273 0.530533Z" fill="#373652"/>
</svg>
