<svg width="20" height="20" viewBox="0 0 14 14" fill="none" xmlns="http://www.w3.org/2000/svg">
<path d="M2.91675 11.1484C2.91675 9.74072 3.90685 8.54172 5.25244 8.31988L5.37364 8.2999C6.45112 8.12226 7.54904 8.12226 8.62652 8.2999L8.74772 8.31988C10.0933 8.54172 11.0834 9.74072 11.0834 11.1484C11.0834 11.7568 10.606 12.25 10.017 12.25H3.98316C3.3942 12.25 2.91675 11.7568 2.91675 11.1484Z" stroke="#858BA0" stroke-width="0.875"/>
<path d="M9.38204 4.04687C9.38204 5.3154 8.3156 6.34375 7.00009 6.34375C5.68458 6.34375 4.61815 5.3154 4.61815 4.04687C4.61815 2.77835 5.68458 1.75 7.00009 1.75C8.3156 1.75 9.38204 2.77835 9.38204 4.04687Z" stroke="#858BA0" stroke-width="0.875"/>
</svg>
