<svg width="138" height="59" viewBox="0 0 138 59" fill="none" xmlns="http://www.w3.org/2000/svg">
<g clip-path="url(#clip0_520_23759)">
<path d="M7.82604 58.3347L0.922974 36.9291H8.65917L11.6346 47.6319L15.0862 36.873H21.6322L25.1432 47.6879L28.1782 36.9291H35.7953L28.8923 58.3347H22.0487L18.3592 47.2957L14.6101 58.3347H7.82604Z" fill="#333333"/>
<path d="M46.3892 58.7281C41.2119 58.7281 37.0463 57.1031 33.9518 53.853L39.0696 49.034C41.2119 51.1073 43.5328 52.172 46.0321 52.172C47.1628 52.172 48.0555 51.8918 48.7696 51.3875C49.4242 50.8831 49.7812 50.2107 49.7812 49.3702V49.3141C49.7812 48.4176 49.3647 47.7451 48.5315 47.2408C47.6984 46.7365 46.5082 46.5124 45.0205 46.5124H41.6285L40.4383 42.5338L47.1628 36.8182H35.9751V30.6543H57.1008V36.0897L50.1383 41.6933C55.1966 42.758 57.6959 45.3356 57.6959 49.4262V49.4822C57.6959 52.228 56.6248 54.4694 54.542 56.0944C52.3996 57.8876 49.7217 58.7281 46.3892 58.7281Z" fill="#FF0036"/>
<path d="M58.1121 58.1676V36.9301H66.0268V39.9C67.9311 37.6025 70.1924 36.4258 72.8108 36.4258C75.1912 36.4258 77.0955 37.1542 78.4642 38.5551C79.8329 39.956 80.4875 41.8612 80.4875 44.2708V58.1676H72.5728V46.6243C72.5728 45.5035 72.2752 44.607 71.7397 43.9906C71.1446 43.3742 70.3709 43.038 69.4188 43.038C68.4071 43.038 67.6335 43.3742 66.9789 43.9906C66.3838 44.607 66.0863 45.5035 66.0863 46.6243V58.1115H58.1121V58.1676Z" fill="#333333"/>
<path d="M88.9358 58.6155C86.5555 58.6155 84.6512 57.943 83.2825 56.5421C81.9138 55.1413 81.2592 53.236 81.2592 50.8265V36.9297H89.1739V48.417C89.1739 49.5377 89.4714 50.4343 90.0665 51.0507C90.6616 51.667 91.4352 52.0033 92.3874 52.0033C93.3395 52.0033 94.1726 51.667 94.7677 51.0507C95.3628 50.4343 95.6604 49.5377 95.6604 48.417V36.9297H103.575V58.1672H95.6604V55.2533C93.8156 57.4947 91.6137 58.6155 88.9358 58.6155Z" fill="#333333"/>
<path d="M113.752 58.614C108.693 58.614 106.135 56.2605 106.135 51.6096V42.924H103.457V36.9282H106.135V31.5488H114.049V36.9282H119.286V42.924H114.049V50.0966C114.049 51.4975 114.763 52.226 116.192 52.226C117.144 52.226 118.155 52.0018 119.167 51.4975V57.3252C117.679 58.1657 115.894 58.614 113.752 58.614Z" fill="#333333"/>
<path d="M128.571 58.6145C124.524 58.6145 120.953 57.5498 117.918 55.4765L120.894 50.9376C123.512 52.5627 126.071 53.3472 128.63 53.3472C129.939 53.3472 130.653 52.9549 130.653 52.2265V52.1704C130.653 51.7782 130.415 51.498 129.88 51.2739C129.344 51.0497 128.392 50.7135 127.023 50.3773C125.714 50.0411 124.702 49.7609 123.81 49.4247C122.977 49.0885 122.144 48.6962 121.37 48.1919C120.596 47.6876 120.001 47.0152 119.585 46.2867C119.168 45.5022 118.99 44.6056 118.99 43.597V43.4849C118.99 41.2995 119.823 39.5624 121.489 38.3296C123.155 37.0969 125.357 36.4805 128.035 36.4805C131.487 36.4805 134.641 37.321 137.318 38.946L134.581 43.653C132.082 42.3642 129.88 41.6918 127.916 41.6918C126.666 41.6918 126.071 42.028 126.071 42.7004V42.7565C126.071 43.1487 126.309 43.4289 126.845 43.653C127.38 43.8772 128.333 44.2134 129.701 44.6056C132.32 45.3341 134.343 46.1186 135.712 47.1272C137.08 48.0798 137.735 49.4807 137.735 51.3859V51.442C137.735 53.7394 136.902 55.4765 135.236 56.7093C133.629 57.9981 131.368 58.6145 128.571 58.6145Z" fill="#333333"/>
<path d="M89.4122 8.29408C89.4122 8.29408 90.4239 7.34148 91.257 6.72509C91.257 6.72509 93.1613 4.48366 95.3631 3.7552C95.3631 3.7552 97.5649 3.13881 98.5171 3.7552C98.5171 3.7552 98.6956 2.69052 99.7668 2.24224C99.7668 2.24224 102.564 1.28963 103.099 0.897385C103.099 0.897385 103.159 2.46638 103.516 3.25088C103.516 3.25088 103.813 4.7078 101.969 5.60437C101.969 5.60437 102.98 7.50958 103.04 8.6303C103.04 8.6303 107.622 17.2037 109.526 18.8288C109.526 18.8288 113.93 23.4797 113.513 27.2901C113.513 27.2901 114.763 24.9927 118.572 22.9194C118.572 22.9194 123.273 20.6219 121.964 13.5054C121.964 13.5054 121.012 9.02254 116.37 10.0312C116.37 10.0312 113.156 10.8157 115.358 13.7295C115.358 13.7295 115.477 14.402 115.12 14.2339C115.12 14.2339 113.454 13.7856 112.978 13.1692C112.978 13.1692 112.621 13.1131 113.037 13.8416C113.037 13.8416 103.694 8.7984 111.966 2.29827C111.966 2.29827 111.847 1.68188 110.538 2.1862C110.538 2.1862 120.714 -3.47339 129.402 4.7078C129.402 4.7078 135.353 11.8804 131.604 20.2857C131.604 20.2857 129.878 23.984 124.642 26.5056C124.642 26.5056 118.215 29.7557 117.858 29.9799L118.393 30.0919C118.393 30.0919 116.191 30.5402 115.953 31.0445L116.013 31.3807C116.013 31.3807 114.406 31.6609 112.561 33.1178C112.561 33.1178 110.716 35.3593 108.574 35.6394C108.574 35.6394 108.753 35.7515 108.931 35.1912C108.931 35.1912 107.443 34.8549 107.205 36.48C107.205 36.48 107.324 37.2084 103.932 36.9283C103.932 36.9283 97.7435 36.7041 95.7202 37.3205L95.9582 36.8722C95.9582 36.8722 95.2441 36.7602 95.0061 37.0403C95.0061 37.0403 95.0061 35.8075 97.6245 36.0317C97.6245 36.0317 95.1846 34.5748 95.1846 32.3333C95.1846 32.3333 94.7085 30.0359 96.3153 27.7384C96.3153 27.7384 98.7551 23.7039 97.0294 23.1435C97.0294 23.1435 96.6723 22.8073 96.3153 23.4797C96.3153 23.4797 95.7202 23.928 94.0539 22.1349C94.0539 22.1349 91.614 19.8374 91.5545 22.5271C91.5545 22.5271 91.495 23.2556 90.8404 22.303C90.8404 22.303 90.4834 22.415 90.6024 22.8073C90.6024 22.8073 89.2337 22.303 89.8288 21.0702C89.8288 21.0702 90.0668 18.7727 92.9232 18.9969C92.9232 18.9969 92.3281 16.027 93.3398 14.9063C93.3398 14.9063 92.6852 14.7382 92.6257 15.2425C92.6257 15.2425 92.6257 13.5614 94.4705 12.2726C94.4705 12.2726 94.4705 11.4881 93.4588 11.8243C93.4588 11.7683 88.8766 11.32 89.4122 8.29408Z" fill="#FF0036"/>
</g>
<defs>
<clipPath id="clip0_520_23759">
<rect width="136.871" height="58.3891" fill="white" transform="translate(0.922241 0.337891)"/>
</clipPath>
</defs>
</svg>
